<svg width="50" height="25" viewBox="0 0 602 600" fill="none" xmlns="http://www.w3.org/2000/svg">
    <path
      d="M252.634 126.312C252.634 196.074 196.086 252.624 126.328 252.624C56.57 252.624 0 196.074 0 126.312C0 56.5501 56.5471 0 126.328 0C196.064 0 252.634 56.5501 252.634 126.312Z"
      fill="currentColor"
    />
    <path
      fill-rule="evenodd"
      clip-rule="evenodd"
      d="M485.062 252.191C550.005 246.84 601.037 192.527 601.037 126.312C601.037 56.5504 544.391 0.000244141 474.511 0.000244141C404.632 0.000244141 347.986 56.5504 347.986 126.312C347.986 126.318 347.986 126.323 347.986 126.328L347.961 126.308C347.961 126.308 336.994 215.842 284.698 268.415C236.804 316.564 127.722 344.179 109.702 348.485C47.7668 356.706 0 409.627 0 473.688C0 543.45 56.6686 600 126.548 600C153.199 600 177.924 591.776 198.316 577.73C270.745 539.252 335.333 545.693 407.661 580.951C427.058 593.025 449.969 600 474.511 600C544.391 600 601.037 543.45 601.037 473.688C601.037 403.926 544.391 347.376 474.511 347.376C423.938 347.376 380.296 376.996 360.042 419.806C350.178 433.421 331.712 452.305 305.165 452.305C281.805 452.305 267.204 447.687 258.901 443.649C269.387 419.641 293.974 369.962 332.163 331.571C373.862 289.651 454.212 261.769 485.062 252.191Z"
      fill="url(#paint0_linear_904_88210)"
    />
    <defs>
      <linearGradient
        id="paint0_linear_904_88210"
        x1="186.153"
        y1="406.225"
        x2="412.46"
        y2="188.693"
        gradientUnits="userSpaceOnUse"
      >
        <stop stop-color="#088DB2" />
        <stop offset="1" stop-color="#32B8B2" />
      </linearGradient>
    </defs>
  </svg>